HIERARCHY
ROOT hip
{
	OFFSET 0.000000 0.000000 0.000000 
	CHANNELS 6 Xposition Yposition Zposition Xrotation Zrotation Yrotation
	JOINT abdomen
	{
		OFFSET 0.000000 3.402643 0.000000 
		CHANNELS 3 Xrotation Zrotation Yrotation
		JOINT chest
		{
			OFFSET 0.000000 8.438565 -0.680529 
			CHANNELS 3 Xrotation Zrotation Yrotation
			JOINT neck
			{
				OFFSET 0.000000 10.207942 -0.272212 
				CHANNELS 3 Xrotation Zrotation Yrotation
				JOINT head
				{
					OFFSET 0.000000 3.130431 0.000000 
					CHANNELS 3 Xrotation Zrotation Yrotation
					End Site
					{
						OFFSET 0.000000 3.130435 0.000000 
					}
				}
			}
			JOINT lCollar
			{
				OFFSET 3.470700 6.669187 -0.816635 
				CHANNELS 3 Yrotation Zrotation Xrotation
				JOINT lShldr
				{
					OFFSET 3.198488 0.000000 0.000000 
					CHANNELS 3 Zrotation Yrotation Xrotation
					JOINT lForeArm
					{
						OFFSET 10.139888 0.000000 0.000000 
						CHANNELS 3 Yrotation Zrotation Xrotation
						JOINT lHand
						{
							OFFSET 8.370511 0.000000 0.000000 
							CHANNELS 3 Zrotation Yrotation Xrotation
							End Site
							{
								OFFSET 4.083176 0.000000 0.000000 
							}
						}
					}
				}
			}
			JOINT rCollar
			{
				OFFSET -3.470700 6.669187 -0.816635 
				CHANNELS 3 Yrotation Zrotation Xrotation
				JOINT rShldr
				{
					OFFSET -3.198488 0.000000 0.000000 
					CHANNELS 3 Zrotation Yrotation Xrotation
					JOINT rForeArm
					{
						OFFSET -10.139888 0.000000 0.000000 
						CHANNELS 3 Yrotation Zrotation Xrotation
						JOINT rHand
						{
							OFFSET -8.370511 0.000000 0.000000 
							CHANNELS 3 Zrotation Yrotation Xrotation
							End Site
							{
								OFFSET -4.083176 0.000000 0.000000 
							}
						}
					}
				}
			}
		}
	}
	JOINT lThigh
	{
		OFFSET 5.308129 -1.633274 1.361059 
		CHANNELS 3 Xrotation Zrotation Yrotation
		JOINT lShin
		{
			OFFSET -2.041588 -20.007561 0.000000 
			CHANNELS 3 Xrotation Zrotation Yrotation
			JOINT lFoot
			{
				OFFSET 0.000000 -19.190928 -1.224953 
				CHANNELS 3 Xrotation Yrotation Zrotation
				End Site
				{
					OFFSET 0.000000 -2.449906 4.627600 
				}
			}
		}
	}
	JOINT rThigh
	{
		OFFSET -5.308129 -1.633274 1.361059 
		CHANNELS 3 Xrotation Zrotation Yrotation
		JOINT rShin
		{
			OFFSET 2.041588 -20.007561 0.000000 
			CHANNELS 3 Xrotation Zrotation Yrotation
			JOINT rFoot
			{
				OFFSET 0.000000 -19.190928 -1.224953 
				CHANNELS 3 Xrotation Yrotation Zrotation
				End Site
				{
					OFFSET 0.000000 -2.449906 4.627600 
				}
			}
		}
	}
}
MOTION
Frames: 18
Frame Time: 0.011111
-3.973971 47.776527 -30.426023 -23.551079 3.351052 -170.500656 -6.811032 2.572042 -5.974391 -20.969070 0.957899 -3.041080 -24.637348 -0.900140 1.731370 44.072437 1.379577 -0.235665 -5.788594 -15.737329 -1.465587 -63.537727 -67.612053 78.787880 -65.630936 9.442802 14.972199 8.524705 12.647240 -36.946671 7.611086 14.174596 -1.900835 61.964897 50.263359 40.095631 60.454941 -9.309546 12.612363 -8.534408 -12.637552 97.513535 1.799666 1.830868 -7.132757 35.450737 -4.998172 -5.557782 -31.669449 14.833103 6.121786 -65.447609 -7.988223 -4.391428 54.219723 3.359634 7.611028 -15.187820 -13.348359 -0.114710 
-3.906115 48.199661 -31.249563 -22.512535 3.844048 -169.330292 -6.577304 2.968250 -6.519078 -20.851164 0.695796 -3.155933 -24.366966 -0.777043 1.470967 44.113144 1.193737 -0.862041 -5.788594 -15.737329 -1.465587 -61.524445 -70.449898 79.502029 -67.532501 9.369169 15.887217 8.524705 12.647240 -34.446663 7.611086 14.174596 -1.900835 61.034161 51.743633 45.136955 62.619453 -9.429231 13.596607 -8.534408 -12.637552 96.331886 2.897481 2.750601 -7.249716 35.124065 -5.012121 -5.513276 -29.393822 16.570339 5.881008 -62.287952 -7.869970 -4.927599 53.769070 3.408008 7.558368 -17.149712 -13.807697 -0.725289 
-3.767206 48.533489 -31.960756 -22.409002 3.453675 -169.201538 -7.042487 1.978795 -6.250118 -20.979231 1.169686 -3.108445 -23.903105 -1.014358 1.386930 44.460934 1.326123 -1.295378 -5.788594 -15.737329 -1.465587 -59.671837 -72.662041 79.562935 -69.277374 9.232755 16.727428 8.524705 12.647240 -33.782604 7.611086 14.174596 -1.900835 59.702251 53.370998 47.440109 64.984886 -9.461171 14.691508 -8.534408 -12.637552 95.970566 2.837718 2.457266 -7.339705 35.064007 -5.021774 -5.501223 -28.115093 17.924606 5.830811 -61.088974 -7.089423 -3.373813 53.162090 3.456960 7.483301 -17.752325 -15.222214 -1.220998 
-3.668945 48.880119 -32.629379 -22.088524 3.523512 -168.897293 -7.218205 1.727480 -6.078966 -21.652672 1.289613 -3.120363 -23.076778 -1.273916 1.377793 44.839710 1.667789 -1.624654 -5.788594 -15.737329 -1.465587 -57.792164 -74.282402 79.220169 -70.969513 9.035380 17.567837 8.524705 12.647240 -32.444714 7.611086 14.174596 -1.900835 58.978992 54.243374 48.718300 67.388092 -9.386959 15.831598 -8.534408 -12.637552 95.833847 2.644287 2.585489 -7.505858 35.073544 -5.021793 -5.511783 -29.040216 16.935989 5.855946 -59.477329 -6.318001 -2.427148 52.405994 3.554619 7.418289 -17.699312 -16.639996 -1.500395 
-3.529394 49.251080 -33.345688 -21.864628 3.710563 -168.860382 -7.700079 1.441314 -5.822707 -21.429209 1.548507 -3.068501 -22.562344 -1.401106 1.290379 44.875687 1.876097 -1.914904 -5.788594 -15.737329 -1.465587 -54.155880 -76.422653 76.998810 -72.489021 8.791963 18.324892 8.524705 12.647240 -31.341198 7.611086 14.174596 -1.900835 57.650688 56.098824 50.368225 69.142548 -9.251024 16.673216 -8.534408 -12.637552 95.511574 2.006247 2.864000 -7.194989 35.322598 -5.002434 -5.528560 -29.409361 16.496874 5.843553 -57.907291 -5.136178 -1.314332 51.523129 3.625151 7.338418 -18.958740 -17.815901 -2.207231 
-3.616773 49.745590 -34.001827 -20.957914 4.871872 -167.472000 -7.411354 3.158574 -6.198390 -20.471224 0.836029 -3.086597 -23.347578 -2.018672 1.221963 44.983814 2.390714 -2.018954 -5.788594 -15.737329 -1.465587 -46.723732 -79.292252 70.962509 -74.095901 8.466816 19.145687 8.524705 12.647240 -30.794321 7.611086 14.174596 -1.900835 55.163067 59.203777 51.007893 70.668877 -9.081945 17.425062 -8.534408 -12.637552 94.525246 1.542449 4.051390 -7.392154 35.471195 -4.992142 -5.557709 -28.239124 17.315973 5.667882 -54.759876 -5.068231 -2.783742 50.434231 3.730419 7.208042 -18.380377 -18.123579 -2.051399 
-3.515311 50.181839 -34.608677 -21.295805 5.078957 -167.867767 -8.237577 3.030688 -5.614739 -20.422829 0.929798 -2.981200 -23.027391 -2.156080 1.251272 45.309574 2.761858 -2.050762 -5.788594 -15.737329 -1.465587 -39.982960 -80.696953 65.666267 -75.952980 7.996083 20.143860 8.524705 12.647240 -29.173231 7.611086 14.174596 -1.900835 54.027546 60.738544 50.913887 72.213104 -8.849032 18.204193 -8.534408 -12.637552 92.406105 -0.038716 4.106169 -6.518023 35.461403 -4.991520 -5.556663 -27.703365 17.973686 5.654471 -53.947933 -3.827362 -1.313654 49.323608 3.830429 7.119948 -18.300879 -19.444685 -2.314529 
-3.561402 50.717316 -35.114388 -20.901587 5.840460 -167.339401 -8.080462 4.151434 -5.322033 -21.338364 0.296639 -2.968406 -22.202435 -2.426472 1.216381 45.735001 3.090188 -2.415534 -5.788594 -15.737329 -1.465587 -34.576542 -81.520897 60.957630 -77.244560 7.591485 20.848934 8.524705 12.647240 -28.196665 7.611086 14.174596 -1.900835 52.044746 61.958027 51.482239 74.122131 -8.471744 19.178352 -8.534408 -12.637552 92.269386 -1.113013 4.755375 -6.198174 35.302952 -5.001687 -5.526614 -27.577278 17.832727 5.552462 -52.007809 -3.329615 -1.468811 48.124382 3.947664 6.991454 -17.792416 -20.229794 -2.260370 
-3.442656 51.197739 -35.707794 -21.000689 4.683946 -167.084274 -8.184024 2.117105 -4.954698 -21.145025 0.909917 -2.807740 -21.939663 -2.788709 0.997488 45.814304 3.597466 -2.934678 -5.788594 -15.737329 -1.465587 -23.114372 -82.627846 50.813400 -78.558395 7.109917 21.595570 8.524705 12.647240 -26.829477 7.611086 14.174596 -1.900835 49.995701 63.460388 50.600918 75.713974 -8.067218 20.018360 -8.534408 -12.637552 91.185410 -1.833375 3.531272 -5.558211 34.934608 -5.030630 -5.492569 -26.856411 17.900415 5.283278 -51.217407 -3.554433 0.992667 47.189682 4.035674 6.900828 -17.145214 -21.866238 -2.290341 
-3.419931 51.726814 -36.271759 -20.384932 4.519667 -166.220810 -7.736686 1.726356 -5.226238 -21.242004 0.689189 -2.828908 -21.226255 -2.724882 0.776710 45.671810 3.976407 -3.329305 -5.788594 -15.737329 -1.465587 -9.705350 -83.253883 38.911827 -79.893272 6.535354 22.401093 8.524705 12.647240 -25.755260 7.611086 14.174596 -1.900835 48.636642 64.614670 49.778206 77.040833 -7.665298 20.746202 -8.534408 -12.637552 89.456894 -2.309557 3.362972 -5.170756 34.518173 -5.050286 -5.441830 -24.881533 18.803278 4.737286 -49.249714 -3.779446 1.645757 46.264214 4.137455 6.785975 -15.648400 -23.016077 -1.877231 
-3.379282 52.255566 -36.768501 -20.020704 4.072177 -165.508316 -7.338293 0.942143 -5.577427 -21.475899 0.645483 -2.888793 -20.185717 -2.463959 0.591429 45.326847 4.240801 -3.606565 -5.788594 -15.737329 -1.465587 3.884449 -83.474014 26.453186 -81.033669 5.956586 23.131533 8.524705 12.647240 -25.140024 7.611086 14.174596 -1.900835 47.432289 65.651405 49.109337 78.262947 -7.231310 21.443310 -8.534408 -12.637552 87.835793 -3.060389 2.817555 -4.830716 34.110184 -5.079723 -5.394640 -23.481638 19.401472 4.320113 -47.843632 -4.218569 2.479516 45.526642 4.182395 6.711607 -13.693308 -23.905458 -1.178741 
-3.271740 52.783360 -37.291813 -19.864582 3.697237 -165.313293 -6.809014 0.029030 -5.292713 -20.277288 1.083403 -2.650744 -21.570738 -2.617088 0.284594 45.640804 4.613756 -3.920389 -5.788594 -15.737329 -1.465587 27.853420 -82.844429 3.523355 -82.009804 5.388524 23.801994 8.524705 12.647240 -24.651747 7.611086 14.174596 -1.900835 43.714622 68.434380 46.472279 79.428131 -6.752307 22.130634 -8.534408 -12.637552 86.976418 -4.164333 2.399523 -4.255877 33.822582 -5.093419 -5.353998 -23.893246 19.105831 4.404756 -46.905655 -3.965118 4.298478 44.816235 4.264420 6.634877 -13.081532 -25.306099 -1.057389 
-3.200684 53.298351 -37.814808 -19.641085 3.550741 -165.121597 -6.502940 -0.506944 -4.840373 -19.897114 1.183081 -2.459650 -22.154011 -2.888262 0.262205 46.682636 5.424385 -3.869636 -5.788594 -15.737329 -1.465587 39.598755 -81.852448 -6.937217 -82.896301 4.790096 24.461121 8.524705 12.647240 -24.485729 7.611086 14.174596 -1.900835 40.893879 69.764709 44.143257 80.558945 -6.213948 22.832291 -8.534408 -12.637552 86.165878 -5.332547 2.184138 -3.618696 33.722191 -5.103076 -5.357740 -23.828152 19.164146 4.408894 -46.043617 -3.974327 5.042647 44.254604 4.309470 6.574672 -9.271950 -25.975605 0.487745 
-3.209646 53.819099 -38.231853 -19.595093 2.638640 -164.588837 -5.663545 -1.668063 -4.394241 -20.190111 1.176199 -2.250899 -23.836960 -4.008646 0.771696 49.683907 7.413203 -2.902465 -5.788594 -15.737329 -1.465587 46.814289 -80.696396 -12.939764 -83.619476 4.234595 25.060930 8.524705 12.647240 -24.778696 7.611086 14.174596 -1.900835 37.501335 70.992485 41.590466 81.562416 -5.666759 23.505928 -8.534408 -12.637552 85.443222 -6.348072 0.946359 -3.206826 33.602531 -5.118638 -5.321877 -22.043694 20.066168 3.915166 -45.597790 -5.370856 5.346406 43.889938 4.338772 6.535263 -12.902353 -27.005728 -1.121364 
-3.085139 54.296326 -38.665550 -19.304012 2.379362 -164.554230 -5.363988 -2.486556 -4.399939 -21.146599 1.147781 -2.280411 -21.187225 -2.992827 0.354114 48.384743 7.027079 -3.677010 -5.788594 -15.737329 -1.465587 50.877895 -80.417297 -15.812674 -84.175323 3.752268 25.582935 8.524705 12.647240 -25.237682 7.611086 14.174596 -1.900835 36.901428 71.060852 41.488373 82.455368 -5.106834 24.146986 -8.534408 -12.637552 84.613144 -7.541421 0.721993 -2.482406 33.542900 -5.118670 -5.326380 -20.990196 20.291449 3.541202 -45.137634 -5.117283 6.890132 43.633381 4.365127 6.503906 -13.390080 -28.712313 -1.469046 
-3.041291 54.757538 -39.092201 -19.024893 2.133718 -164.131973 -4.684089 -2.992189 -4.292500 -21.332212 1.144931 -2.186565 -20.829901 -3.176728 0.294781 48.549942 7.607645 -3.760329 -5.788594 -15.737329 -1.465587 56.085793 -79.273705 -20.093502 -84.676842 3.262641 26.118286 8.524705 12.647240 -25.774792 7.611086 14.174596 -1.900835 33.989388 72.203102 39.258228 82.990051 -4.729149 24.550461 -8.534408 -12.637552 82.884628 -8.519431 0.409633 -1.973113 33.374271 -5.128166 -5.294883 -21.291037 19.735256 3.538066 -44.674473 -5.507813 7.301998 43.614491 4.355464 6.498606 -12.537170 -30.042276 -1.152349 
-3.012484 55.190914 -39.486202 -18.938316 1.722892 -163.715790 -4.171398 -3.598519 -4.314771 -20.804964 1.050811 -2.093501 -20.699127 -2.938293 0.007935 48.093769 7.667020 -4.106926 -5.788594 -15.737329 -1.465587 61.261005 -77.556023 -24.528471 -85.083328 2.813577 26.644087 8.524705 12.647240 -26.272839 7.611086 14.174596 -1.900835 30.051186 74.035820 35.718266 83.341995 -4.462618 24.834663 -8.534408 -12.637552 81.068222 -9.636467 -0.195362 -1.432795 33.284008 -5.137851 -5.289755 -21.045967 19.394825 3.365719 -44.541542 -6.347993 7.250042 43.732098 4.362204 6.501603 -10.604021 -31.204990 -0.228086 
-2.983678 55.599640 -39.872845 -18.887241 1.420611 -163.397980 -3.708672 -4.115819 -4.155714 -21.614408 0.720772 -2.053598 -19.105127 -2.275206 -0.407198 47.323887 7.326570 -5.018641 -5.788594 -15.737329 -1.465587 63.010620 -77.285797 -25.910650 -85.304939 2.542894 26.963408 8.524705 12.647240 -27.239635 7.611086 14.174596 -1.900835 28.568104 74.364197 34.398621 83.829910 -4.065680 25.270763 -8.534408 -12.637552 80.306503 -10.884966 -0.693318 -0.981941 33.273060 -5.145799 -5.291075 -19.693817 20.998714 3.161243 -44.586842 -7.158220 6.738590 43.919491 4.333018 6.545313 -7.580262 -32.470467 1.264808 
